<svg width="42" height="46" viewBox="0 0 42 46" fill="none" xmlns="http://www.w3.org/2000/svg">
<path d="M21.0037 7.7959C28.3349 7.7959 34.2993 13.7603 34.2993 21.0916C34.2993 25.9772 31.6704 30.4031 27.4085 32.7454V36.1458H27.4113V38.8628H27.4151V42.9841H23.5732C23.4935 44.3306 22.3734 45.4016 21.0076 45.4016C19.6417 45.4016 18.5216 44.3306 18.442 42.9841H14.6025V40.2671H14.5986V36.1458L14.599 32.7454C10.3371 30.4031 7.70824 25.9772 7.70824 21.0916C7.70824 13.7603 13.6726 7.7959 21.0037 7.7959ZM26.007 37.1704H16.0029V38.8628H26.007V37.1704ZM21.0076 43.9974C21.6626 43.9974 22.0894 43.4966 22.1617 42.9841H19.8526C19.928 43.555 20.4166 43.9974 21.0076 43.9974ZM16.0068 41.5799H26.0109L26.2012 39.9905H16.1971L16.0068 41.5799ZM15.6195 31.6967L16.0033 31.892V36.1072H20.3041V25.7311L16.1391 21.5659C15.865 21.2917 15.865 20.8472 16.1392 20.5729C16.4133 20.2988 16.8579 20.2987 17.1322 20.573L21.0063 24.4473L24.8804 20.573C25.1545 20.2988 25.5991 20.2987 25.8733 20.5729C26.1476 20.8472 26.1476 21.2917 25.8734 21.5659L21.7084 25.7311V36.1072H26.0042V31.892L26.388 31.6967C30.4017 29.6547 32.895 25.591 32.895 21.0916C32.895 14.5346 27.5606 9.20022 21.0037 9.20022C14.4469 9.20022 9.11252 14.5346 9.11252 21.0916C9.11252 25.591 11.6058 29.6547 15.6195 31.6967Z" fill="white"/>
<path d="M17.2981 12.053C17.6859 12.053 18.0002 12.3674 18.0002 12.7552C18.0002 13.143 17.6859 13.4573 17.2981 13.4573C16.1937 13.4573 13.605 14.7841 13.605 17.3571C13.605 17.7449 13.2907 18.0592 12.9029 18.0592C12.5151 18.0592 12.2008 17.7449 12.2008 17.3571C12.2008 13.8747 15.5192 12.053 17.2981 12.053Z" fill="white"/>
<path d="M37.2628 21.5456C37.2628 21.1578 37.5771 20.8435 37.9649 20.8435H41.1484C41.5362 20.8435 41.8505 21.1578 41.8505 21.5456C41.8505 21.9334 41.5362 22.2478 41.1484 22.2478H37.9649C37.5771 22.2478 37.2628 21.9335 37.2628 21.5456Z" fill="white"/>
<path d="M36.132 10.5818C35.9948 10.7189 35.8152 10.7875 35.6354 10.7875C35.4558 10.7875 35.276 10.7189 35.139 10.5819C34.8647 10.3076 34.8647 9.86308 35.1389 9.58893L37.3898 7.33793C37.6638 7.06385 38.1085 7.06376 38.3827 7.33784C38.657 7.6121 38.657 8.05663 38.3828 8.33081L36.132 10.5818Z" fill="white"/>
<path d="M35.2417 31.6195L37.4928 33.8705C37.767 34.1447 37.767 34.5893 37.4929 34.8635C37.3557 35.0007 37.1761 35.0692 36.9963 35.0692C36.8167 35.0692 36.637 35.0007 36.4999 34.8635L34.2488 32.6125C33.9746 32.3383 33.9746 31.8937 34.2487 31.6197C34.5229 31.3454 34.9675 31.3454 35.2417 31.6195Z" fill="white"/>
<path d="M0.864058 20.8435H4.04748C4.43528 20.8435 4.74963 21.1578 4.74963 21.5456C4.74963 21.9334 4.43528 22.2478 4.04748 22.2478H0.864058C0.476262 22.2478 0.161931 21.9334 0.161931 21.5456C0.161931 21.1578 0.476262 20.8435 0.864058 20.8435Z" fill="white"/>
<path d="M7.26712 10.7875C7.08748 10.7875 6.90774 10.7189 6.77062 10.5819L4.51962 8.33088C4.24547 8.05662 4.24547 7.61209 4.51962 7.33783C4.7939 7.06374 5.23841 7.06374 5.51269 7.33783L7.76367 9.5888C8.03784 9.86309 8.03784 10.3076 7.76367 10.5819C7.62651 10.7189 7.44676 10.7875 7.26712 10.7875Z" fill="white"/>
<path d="M20.5073 4.99972C20.3802 4.8727 20.3016 4.69711 20.3016 4.50326L20.3015 1.31988C20.3016 0.932092 20.6159 0.61776 21.0037 0.617682C21.3915 0.617823 21.7058 0.932139 21.7059 1.31989L21.7059 4.50326C21.7059 4.89107 21.3915 5.20539 21.0037 5.20545C20.8099 5.20536 20.6343 5.12674 20.5073 4.99972Z" fill="white"/>
<path d="M6.77078 31.6195C7.04484 31.3454 7.48946 31.3454 7.76375 31.6197C8.03792 31.8937 8.03792 32.3383 7.76363 32.6125L5.51254 34.8635C5.37551 35.0007 5.19577 35.0692 5.01613 35.0692C4.83647 35.0692 4.65672 35.0007 4.51958 34.8635C4.24543 34.5893 4.24543 34.1447 4.51969 33.8705L6.77078 31.6195Z" fill="white"/>
</svg>
